<svg xmlns="http://www.w3.org/2000/svg" width="72" height="72" fill="none">
    <circle cx="44" cy="44" r="28" fill="#2C6269" />
    <path fill="#79C8C7" fill-rule="evenodd"
        d="M44.3 4.7a4.7 4.7 0 1 1 2.3 4L39 16.3c.4.7.7 1.5.7 2.4a4.7 4.7 0 1 1-9.3-.8L25 16.4a4.7 4.7 0 0 1-6.8 1.3l-7.1 5.7a4.7 4.7 0 1 1-1.6-1.7l7.2-5.8a4.7 4.7 0 1 1 9-1.8l5.7 1.6a4.7 4.7 0 0 1 6-1L45 7c-.4-.7-.7-1.5-.7-2.3Zm-25 10.8a1.2 1.2 0 0 0-.2-.1c-.3-.4-.4-.9-.4-1.4a2.3 2.3 0 1 1 .5 1.5ZM8.5 24a2.3 2.3 0 0 0-4 1.7 2.3 2.3 0 1 0 4-1.7ZM47.4 6.4a1.2 1.2 0 0 0 0-.1 2.3 2.3 0 0 1 1.6-4 2.3 2.3 0 1 1-1.6 4Zm5.1 12.3c.6 0 1.2.5 1.2 1.1v33.9h1.1a1.2 1.2 0 0 1 0 2.3H1.2a1.2 1.2 0 0 1 0-2.3h1.1V40.8c0-.6.6-1.1 1.2-1.1h7c.6 0 1.2.5 1.2 1.1v12.9h4.6V29.2c0-.7.6-1.2 1.2-1.2h7c.6 0 1.2.5 1.2 1.2v24.5h4.6V33.8c0-.6.6-1.1 1.2-1.1h7c.6 0 1.2.5 1.2 1.1v19.9h4.6V19.8c0-.6.6-1.1 1.2-1.1h7ZM51.3 21v32.7h-4.6V21h4.6Zm-14 32.7V35h-4.6v18.7h4.6ZM18.7 30.3h4.6v23.4h-4.6V30.3ZM9.3 53.7V42H4.7v11.7h4.6ZM35 21a2.3 2.3 0 1 1 0-4.7 2.3 2.3 0 0 1 0 4.7Z"
        clip-rule="evenodd" />
</svg>