<svg xmlns="http://www.w3.org/2000/svg" width="67" height="56" fill="none">
    <path fill="#2C6269" fill-rule="evenodd"
        d="M26.5 52c-2.9 2.7-6.6 4-11.2 4-4.8 0-8.5-1.5-11.2-4.4C1.4 48.6 0 44.5 0 39c0-3.7.9-7.9 2.6-12.5A78.4 78.4 0 0 1 19.4 0H31c-1.7 4-3 7.8-4 11.1-.8 3.4-1.3 6.4-1.3 9.2 0 3.1.4 5.8 1.2 8l2.5 6.6c.9 2.2 1.3 4.7 1.3 7.7 0 3.6-1.4 6.8-4.2 9.4Zm36 0c-2.9 2.7-6.6 4-11.2 4-4.8 0-8.5-1.5-11.2-4.4-2.7-3-4.1-7.1-4.1-12.5 0-3.7.9-7.9 2.6-12.5A78.4 78.4 0 0 1 55.4 0H67c-1.7 4-3 7.8-4 11.1-.8 3.4-1.3 6.4-1.3 9.2 0 3.1.4 5.8 1.2 8l2.5 6.6c.9 2.2 1.3 4.7 1.3 7.7 0 3.6-1.4 6.8-4.2 9.4Z"
        clip-rule="evenodd" />
</svg>