<svg xmlns="http://www.w3.org/2000/svg" width="72" height="72" fill="none">
    <circle cx="44" cy="44" r="28" fill="#2C6269" />
    <path fill="#79C8C7" fill-rule="evenodd"
        d="M14.5 0h14c5.7 0 10.3 4.6 10.3 10.3v4.6a3.7 3.7 0 0 1 0 7.5h-.3c-.2 3.7-2.3 6.9-5.3 8.7v1.6h3a4.5 4.5 0 0 1 4.4 4.7h.1c4.3.6 7.4 4.1 7.4 8.3V56h-1.9V45.7c0-3.2-2.4-6-5.6-6.4h-.4l-.3.4L35 47v9h-1.8V43A9.4 9.4 0 0 1 22 43v13H20v-9l-4.8-7.3c-.2-.1-.2-.3-.3-.5h-.5a6.5 6.5 0 0 0-5.6 6.5V56H7V45.7c0-4.2 3.2-7.7 7.3-8.3h.2v-.2c0-2.5 2-4.5 4.5-4.5h3V31a11 11 0 0 1-5.4-8.5v-.2h-.2a3.7 3.7 0 0 1 0-7.5v-4.3a6.5 6.5 0 0 1-3.8-6c0-.4.4-.9 1-.9h.5c-.4-.5-.5-1.2-.5-1.8v-1c0-.5.4-.9.9-.9Zm18.7 35.7v-1.2h3c1.4 0 2.6 1.2 2.6 2.7 0 .5-.2 1-.5 1.5L35 43.6v-6c0-.6-.4-1-.9-1h-.2a1 1 0 0 1-.7-1Zm-3.7-3.2 1.8-.5v3.7c0 1.2.8 2.2 1.9 2.6v2.1a7.5 7.5 0 0 1-11.2 0v-2a2.8 2.8 0 0 0 1.8-2.7V32a11 11 0 0 0 5.7.5Zm-9.4 5v6.1l-3.3-5c-.3-.4-.4-.9-.4-1.4 0-1.5 1.2-2.7 2.6-2.7h3v1.2c0 .4-.4.8-.8 1H21a1 1 0 0 0-.9.8Zm15-26.3H37v2.9a5.5 5.5 0 0 1-1.8-2.9Zm-1.9 0a7.8 7.8 0 0 0 3.7 5.2v3.1l-.2 2.6a9.3 9.3 0 0 1-7.5 8.6 9.2 9.2 0 0 1-10.7-8.3l-.3-2.8v-3.2c1-.6 3.3-2.4 3.7-5.2h11.3Zm-16.8 5.6v3.7a1.9 1.9 0 0 1 0-3.7Zm3.6-5.6c-.3 1.3-1 2.2-1.8 2.9v-3l1 .1h.8Zm18.8 8.4v-2.8a1.9 1.9 0 0 1 0 3.7h-.1v-.9Zm-24.2-14a4.7 4.7 0 0 0 4.6 3.7h17.6c-.4-4.2-4-7.4-8.3-7.4h-13c0 1 .8 1.8 1.8 1.8a1 1 0 0 1 0 1.9h-2.7Zm9.2 12.1a1.9 1.9 0 1 1-3.7 0 1.9 1.9 0 0 1 3.7 0Zm9.4 1.9a1.9 1.9 0 1 0 0-3.7 1.9 1.9 0 0 0 0 3.7Zm-6.1 1 1.3-3.5-1.7-.6-1.9 4.6a1 1 0 0 0 .9 1.3h2.8v-1.9h-1.4Zm-1.2 3.7c1.4 0 2.8-.6 3.8-1.6L31 24A7.3 7.3 0 0 1 26 26h-.2v-1.8h.2Zm-8.6 23.3a1 1 0 1 1 1.9 0v5.6a1 1 0 1 1-1.9 0v-5.6Zm18.7 0a1 1 0 1 1 1.8 0v5.6a1 1 0 1 1-1.8 0v-5.6Z"
        clip-rule="evenodd" />
</svg>