<svg xmlns="http://www.w3.org/2000/svg" width="200" height="144" fill="none">
    <path fill="#2C6269" d="M100 144H0V44h100z" />
    <path fill="#004047" fill-rule="evenodd"
        d="M100 244a100 100 0 1 0 0-200 100 100 0 0 0 0 200Zm0-67a33 33 0 1 0 0-66 33 33 0 0 0 0 66Z"
        clip-rule="evenodd" />
    <path fill="#F67E7E" fill-rule="evenodd"
        d="M100 100H0v4h100v-4Zm0 8H0v4h100v-4ZM0 116h100v4H0v-4Zm100 8H0v4h100v-4ZM0 132h100v4H0v-4Zm100 8H0v4h100v-4Z"
        clip-rule="evenodd" />
    <path fill="#79C8C7" fill-rule="evenodd"
        d="M0 0h4v4H0V0Zm11 0H7v4h4V0Zm0 8H7v4h4V8Zm-4 8h4v4H7v-4Zm4 8H7v4h4v-4Zm-4 8h4v4H7v-4Zm4 8H7v4h4v-4Zm3-40h4v4h-4V0Zm0 8h4v4h-4V8Zm4 8h-4v4h4v-4Zm-4 8h4v4h-4v-4Zm4 8h-4v4h4v-4Zm-4 8h4v4h-4v-4ZM0 8h4v4H0V8Zm21-8h4v4h-4V0Zm0 8h4v4h-4V8Zm4 8h-4v4h4v-4Zm-4 8h4v4h-4v-4Zm4 8h-4v4h4v-4Zm-4 8h4v4h-4v-4ZM0 16h4v4H0v-4ZM28 0h4v4h-4V0Zm0 8h4v4h-4V8Zm4 8h-4v4h4v-4Zm-4 8h4v4h-4v-4Zm4 8h-4v4h4v-4Zm-4 8h4v4h-4v-4ZM0 24h4v4H0v-4ZM35 0h4v4h-4V0Zm0 8h4v4h-4V8Zm4 8h-4v4h4v-4Zm-4 8h4v4h-4v-4Zm4 8h-4v4h4v-4Zm-4 8h4v4h-4v-4ZM0 32h4v4H0v-4ZM42 0h4v4h-4V0Zm0 8h4v4h-4V8Zm4 8h-4v4h4v-4Zm-4 8h4v4h-4v-4Zm4 8h-4v4h4v-4Zm-4 8h4v4h-4v-4ZM0 40h4v4H0v-4ZM49 0h4v4h-4V0Zm0 8h4v4h-4V8Zm4 8h-4v4h4v-4Zm-4 8h4v4h-4v-4Zm4 8h-4v4h4v-4Zm-4 8h4v4h-4v-4Z"
        clip-rule="evenodd" />
</svg>