<svg xmlns="http://www.w3.org/2000/svg" width="72" height="72" fill="none">
    <circle cx="44" cy="44" r="28" fill="#2C6269" />
    <path fill="#79C8C7" fill-rule="evenodd"
        d="M34 53.8c0 1.2-1 2.2-2.3 2.2h-7.4C23 56 22 55 22 53.8v-3.3c-2-.5-4-1.3-5.9-2.4L14 50.4c-.8.9-2.2.9-3 0l-5.3-5.2c-.9-.9-.9-2.3 0-3.1l2.3-2.3c-1-1.9-2-3.8-2.4-5.9H2.2C1 34 0 33 0 31.7v-7.4C0 23 1 22 2.2 22h3.2c.6-2 1.4-4 2.5-5.9L5.6 14c-.9-.8-.9-2.2 0-3l5.2-5.3c.9-.9 2.3-.9 3.1 0l2.3 2.3c1.9-1.1 3.8-2 5.9-2.5V2.2C22 1 23 0 24.3 0h7.4C33 0 34 1 34 2.2v3.2c2 .6 4 1.4 5.9 2.5L42 5.6c.8-.9 2.2-.9 3 0l5.3 5.2c.9.9.9 2.3 0 3.1l-2.3 2.3c1.1 1.9 2 3.8 2.5 5.9h3.2c1.2 0 2.2 1 2.2 2.2v7.4c0 1.2-1 2.2-2.2 2.2h-3.2c-.6 2-1.4 4-2.5 5.9l2.3 2.3c.9.8.9 2.2 0 3l-5.2 5.3c-.9.9-2.3.9-3.1 0l-2.3-2.3c-1.9 1.1-3.8 2-5.9 2.5v3.2Zm-18-8.2.7.2a21 21 0 0 0 6.7 2.8c.5.1.9.6.9 1v4.2h7.4v-4.1c0-.5.4-1 .9-1a21 21 0 0 0 6.8-2.9 1 1 0 0 1 1.3.2l3 2.9 5.2-5.3-3-2.9a1 1 0 0 1 0-1.3 21 21 0 0 0 2.7-6.8 1 1 0 0 1 1.1-.9h4.1v-7.4h-4a1 1 0 0 1-1.1-.9 21 21 0 0 0-2.9-6.8 1 1 0 0 1 .2-1.3l2.9-3-5.3-5.2-2.9 3a1 1 0 0 1-1.3 0 21 21 0 0 0-6.8-2.8 1 1 0 0 1-.9-1V2.2h-7.4v4c0 .6-.4 1-.9 1.2a21 21 0 0 0-6.8 2.8 1 1 0 0 1-1.3-.2l-3-2.9-5.2 5.3 3 2.9c.3.3.4 1 0 1.3a21 21 0 0 0-2.7 6.8 1 1 0 0 1-1 .9H2.1v7.4h4.1c.5 0 1 .4 1 .9a21 21 0 0 0 2.9 6.7c.3.5.2 1-.2 1.4l-2.9 3 5.3 5.2 2.9-3c.2-.1.5-.3.8-.3Zm.7-6.3a16 16 0 0 0 22.6 0 16 16 0 0 0 3-18.4 1 1 0 1 0-2 1 13.8 13.8 0 1 1-5.6-6 1 1 0 1 0 1.1-1.8 16 16 0 0 0-19 2.6 16 16 0 0 0 0 22.6Zm22-20.5a1.1 1.1 0 0 1-1-1 1.1 1.1 0 0 1 1-1.2 1.1 1.1 0 0 1 1.2 1.1 1.1 1.1 0 0 1-1.1 1.1ZM26.6 36.1a1 1 0 0 1-.8-.4l-7-6.9a1 1 0 0 1 0-1.5l4-4a1 1 0 0 1 1.5 0l2.3 2.3 5.3-5.3a1 1 0 0 1 1.5 0l4 3.9a1 1 0 0 1 0 1.5l-10 10-.8.4ZM21 28l5.4 5.3 8.4-8.4-2.4-2.4-5.3 5.3a1 1 0 0 1-1.5 0l-2.2-2.2L21 28Z"
        clip-rule="evenodd" />
</svg>