<svg xmlns="http://www.w3.org/2000/svg" width="100" height="200" fill="none">
    <path fill="#2C6269" d="M100 100H0V0h100z" />
    <path fill="#F67E7E" fill-rule="evenodd"
        d="M100 200a100 100 0 1 0 0-200 100 100 0 0 0 0 200Zm0-67a33 33 0 1 0 0-66 33 33 0 0 0 0 66Z"
        clip-rule="evenodd" />
    <path fill="#79C8C7" fill-rule="evenodd"
        d="M100 0H0v4h100V0Zm0 8H0v4h100V8ZM0 16h100v4H0v-4Zm100 8H0v4h100v-4ZM0 32h100v4H0v-4Zm100 8H0v4h100v-4Z"
        clip-rule="evenodd" />
</svg>