<svg xmlns="http://www.w3.org/2000/svg" width="200" height="100" fill="none">
    <path fill="#2C6269" d="M100 100h100V0H100z" />
    <path fill="#012F34" fill-rule="evenodd"
        d="M100 200a100 100 0 1 1 0-200 100 100 0 0 1 0 200Zm0-67a33 33 0 1 1 0-66 33 33 0 0 1 0 66Z"
        clip-rule="evenodd" />
    <path fill="#79C8C7" fill-rule="evenodd"
        d="M100 56h100v4H100v-4Zm0 8h100v4H100v-4Zm100 8H100v4h100v-4Zm-100 8h100v4H100v-4Zm100 8H100v4h100v-4Zm-100 8h100v4H100v-4Z"
        clip-rule="evenodd" />
</svg>